<svg xmlns="http://www.w3.org/2000/svg" xmlns:xlink="http://www.w3.org/1999/xlink" width="299.273" height="254.319" viewBox="0 0 224.455 190.739"><defs><path id="b" d="M3.328-3.016c.063-.25.297-1.171.985-1.171.046 0 .296 0 .5.125a.58.58 0 0 0-.47.546c0 .157.11.344.376.344a.546.546 0 0 0 .531-.578c0-.516-.578-.656-.922-.656-.578 0-.922.531-1.047.75-.25-.656-.781-.75-1.078-.75-1.031 0-1.61 1.281-1.61 1.531 0 .11.11.11.126.11.078 0 .11-.032.125-.11.344-1.062 1-1.312 1.344-1.312.187 0 .53.093.53.671 0 .313-.171.97-.53 2.375-.157.61-.516 1.032-.954 1.032-.062 0-.28 0-.5-.125.25-.063.47-.266.47-.547 0-.266-.22-.344-.36-.344-.313 0-.547.25-.547.578 0 .453.484.656.922.656.672 0 1.031-.703 1.047-.75.125.36.484.75 1.078.75 1.031 0 1.594-1.28 1.594-1.53 0-.11-.079-.11-.11-.11-.094 0-.11.047-.14.11-.329 1.077-1 1.312-1.313 1.312-.39 0-.547-.313-.547-.657 0-.218.047-.437.156-.875Zm0 0"/><path id="c" d="M4.844-3.797c.047-.14.047-.156.047-.234 0-.172-.141-.266-.297-.266a.46.46 0 0 0-.344.203c-.016.063-.11.36-.14.547-.079.25-.141.531-.204.797L3.453-.953c-.031.14-.469.844-1.125.844-.5 0-.61-.438-.61-.813 0-.453.173-1.078.5-1.953.157-.406.204-.516.204-.719 0-.437-.313-.812-.813-.812-.953 0-1.312 1.453-1.312 1.531 0 .11.094.11.11.11.109 0 .109-.032.156-.188.28-.938.671-1.235 1.015-1.235.078 0 .25 0 .25.313 0 .25-.11.516-.172.703-.406 1.063-.578 1.625-.578 2.094 0 .89.625 1.187 1.219 1.187.39 0 .719-.171 1-.453-.125.516-.25 1.016-.64 1.547-.266.328-.641.625-1.094.625-.141 0-.594-.031-.766-.422.156 0 .297 0 .422-.125a.5.5 0 0 0 .203-.406c0-.312-.266-.344-.36-.344C.829.531.5.687.5 1.171c0 .5.438.876 1.063.876 1.015 0 2.046-.906 2.328-2.031Zm0 0"/><path id="d" d="M1.328-.828c.531-.578.828-.828 1.188-1.14 0 0 .609-.532.968-.891.954-.922 1.172-1.407 1.172-1.453 0-.094-.093-.094-.11-.094-.077 0-.093.015-.155.11-.297.484-.5.64-.735.64-.25 0-.36-.156-.515-.328-.188-.22-.36-.422-.688-.422-.75 0-1.203.922-1.203 1.14 0 .047.031.11.11.11.093 0 .109-.047.14-.11.188-.468.766-.468.844-.468.203 0 .39.062.625.14.406.156.515.156.765.156-.359.422-1.187 1.141-1.375 1.297l-.906.844C.781-.625.422-.062.422.016c0 .093.11.093.125.093C.625.11.64.094.703-.016c.235-.359.531-.625.86-.625.218 0 .328.094.578.375.156.22.343.375.625.375 1 0 1.578-1.265 1.578-1.53 0-.048-.047-.11-.125-.11-.094 0-.11.062-.14.14-.235.641-.876.829-1.204.829-.187 0-.375-.063-.578-.125-.344-.125-.5-.172-.703-.172-.016 0-.172 0-.266.03m0 0"/><path id="f" d="M4.36-6.672c0-.031.03-.14.03-.14 0-.016 0-.11-.124-.11-.094 0-.11.031-.157.203l-.578 2.297C1.953-4.359.484-3.047.484-1.688c0 .954.704 1.735 1.922 1.813-.078.297-.156.625-.234.938-.125.468-.219.843-.219.875 0 .093.078.109.125.109s.063-.016.094-.047c.015-.016.078-.25.11-.39L2.655.124C4.266.063 5.72-1.281 5.72-2.609c0-.797-.532-1.703-1.922-1.813ZM2.452-.094c-.594-.031-1.312-.39-1.312-1.375 0-1.203.859-2.593 2.343-2.734Zm1.281-4.11c.766.048 1.329.5 1.329 1.376 0 1.187-.86 2.61-2.344 2.734Zm0 0"/><path id="g" d="M4.531-4.984c0-.657-.172-2.047-1.187-2.047-1.39 0-2.922 2.812-2.922 5.094C.422-1 .703.108 1.609.108c1.407 0 2.922-2.859 2.922-5.093M1.47-3.625c.172-.625.375-1.422.781-2.14.266-.485.625-1.048 1.078-1.048.485 0 .547.641.547 1.204 0 .5-.078 1-.312 1.984Zm2 .328c-.11.453-.313 1.297-.703 2.016-.344.687-.72 1.172-1.157 1.172-.328 0-.53-.297-.53-1.22 0-.421.062-1 .312-1.968Zm0 0"/><path id="e" d="M4.422-4a.73.73 0 0 0-.61.688c0 .218.172.468.5.468.344 0 .72-.281.72-.797 0-.453-.36-.859-.97-.859a1.8 1.8 0 0 0-1.328.594C2.5-4.36 1.922-4.5 1.563-4.5c-.36 0-.641.203-.86.563-.25.39-.39.921-.39.984 0 .14.156.14.25.14.109 0 .14 0 .187-.046.031-.016.031-.047.094-.297.187-.75.406-.985.672-.985.156 0 .234.094.234.36 0 .172-.031.281-.14.75-.048.172-.22.828-.282 1.078-.047.187-.156.64-.203.812-.062.266-.172.72-.172.782 0 .203.156.437.469.437a.704.704 0 0 0 .656-.531c0-.031.688-2.734.688-2.797.046-.156.046-.172.172-.312.234-.297.593-.579 1.093-.579.25 0 .36.11.39.141m0 0"/><clipPath id="a"><path d="M0 0h224.453v190.738H0Zm0 0"/></clipPath></defs><g clip-path="url(#a)"><path fill="#fff" d="M0 190.738h224.453V0H0Zm0 0"/></g><path fill="none" stroke="#000" stroke-miterlimit="10" stroke-width=".399" d="m96.684 131.852-56.352 33.382"/><path fill="none" stroke="#000" stroke-linecap="round" stroke-linejoin="round" stroke-miterlimit="10" stroke-width=".39898005000000003" d="M43.164 166.336c-1.059-1.043-2.129-1.195-3.004-1 .59-.676.973-1.688.567-3.113"/><use xlink:href="#b" x="30.777" y="173.245"/><path fill="none" stroke="#000" stroke-miterlimit="10" stroke-width=".399" d="m96.684 131.852 97.804 19.312"/><path fill="none" stroke="#000" stroke-linecap="round" stroke-linejoin="round" stroke-miterlimit="10" stroke-width=".39898404" d="M193.117 148.457c.09 1.48.79 2.309 1.567 2.746-.887.11-1.844.61-2.497 1.942"/><use xlink:href="#c" x="198.399" y="159.05"/><path fill="none" stroke="#000" stroke-miterlimit="10" stroke-width=".399" d="M96.684 131.852V25.699"/><path fill="none" stroke="#000" stroke-linecap="round" stroke-linejoin="round" stroke-miterlimit="10" stroke-width=".399" d="M94.293 27.574c1.434-.379 2.113-1.222 2.39-2.074.282.852.958 1.695 2.391 2.074"/><use xlink:href="#d" x="94.148" y="21.783"/><path fill="none" stroke="#00f" stroke-miterlimit="10" stroke-width=".797" d="m96.684 131.852 26.586-47.059"/><path fill="none" stroke="#00f" stroke-linecap="round" stroke-linejoin="round" stroke-miterlimit="10" stroke-width=".7969681200000001" d="M119.5 85.137c1.855.511 3.133.039 3.965-.692-.2 1.09.058 2.426 1.453 3.75"/><use xlink:href="#e" x="127.379" y="80.379" fill="#00f"/><path fill="none" stroke="#000" stroke-dasharray="2.98883 2.98883" stroke-miterlimit="10" stroke-width=".399" d="m96.684 131.852 26.976 34.433M123.66 166.285V84.098"/><use xlink:href="#f" x="89.276" y="153.823"/><path fill="none" stroke="#000" stroke-miterlimit="10" stroke-width=".399" d="M79.676 141.926c7.812 1.543 17.101 1.96 25.812 1.164"/><use xlink:href="#g" x="103.924" y="104.112"/><path fill="none" stroke="#000" stroke-miterlimit="10" stroke-width=".399" d="M96.684 99.887c2.601 3.32 5.07 10.652 6.746 20.027"/><path stroke="#000" stroke-miterlimit="10" stroke-width=".399" d="M125.652 166.285a1.99 1.99 0 0 0-1.992-1.992 1.993 1.993 0 1 0 1.992 1.992Zm0 0"/></svg>