<?xml version="1.0" encoding="utf-8"?>
<!DOCTYPE svg PUBLIC "-//W3C//DTD SVG 20010904//EN" "http://www.w3.org/TR/2001/REC-SVG-20010904/DTD/svg10.dtd">
<svg version="1.0" xmlns="http://www.w3.org/2000/svg" width="130pt" height="130pt" viewBox="0 0 130 130" style="" preserveAspectRatio="xMidYMid meet">
<g fill="#F9F4EAFF" stroke="#F9F4EAFF">
<path d="M 22.000 50.781 C 22.000 51.210 25.961 61.448 30.803 73.531 C 38.778 93.434 39.841 95.528 42.109 95.798 C 44.441 96.075 44.941 95.266 49.456 83.904 L 54.300 71.713 59.026 83.565 C 61.625 90.084 64.190 95.563 64.726 95.742 C 65.262 95.921 66.154 95.489 66.710 94.783 C 68.887 92.016 81.135 56.039 80.824 53.324 C 80.501 50.513 80.464 50.499 72.417 50.212 L 64.333 49.924 62.771 53.900 C 61.912 56.087 61.462 58.129 61.771 58.438 C 62.080 58.747 64.444 59.000 67.023 59.000 L 71.713 59.000 68.805 67.218 C 67.206 71.738 65.771 75.563 65.617 75.717 C 65.462 75.871 63.609 71.610 61.498 66.248 C 59.386 60.887 57.283 56.349 56.823 56.165 C 56.364 55.980 56.236 55.427 56.540 54.935 C 56.844 54.444 56.606 53.132 56.011 52.021 C 55.168 50.445 53.922 50.000 50.358 50.000 C 47.112 50.000 45.925 50.363 46.264 51.250 C 46.527 51.938 47.514 54.750 48.457 57.500 L 50.171 62.500 46.727 70.883 C 44.832 75.494 43.045 78.869 42.754 78.383 C 40.469 74.563 33.093 53.469 33.943 53.186 C 34.524 52.992 35.000 52.196 35.000 51.417 C 35.000 50.340 33.441 50.000 28.500 50.000 C 24.925 50.000 22.000 50.351 22.000 50.781 "/></g>
<g fill="#F9F4EAFF" stroke="#F9F4EAFF">
<path d="M 78.513 68.622 C 77.681 70.614 77.000 72.414 77.000 72.622 C 77.000 72.830 78.575 73.000 80.500 73.000 L 84.000 73.000 84.000 85.510 C 84.000 96.782 83.802 98.189 82.000 99.732 C 80.900 100.674 80.000 101.794 80.000 102.222 C 80.000 102.650 83.375 103.000 87.500 103.000 C 94.522 103.000 97.250 101.801 93.500 100.362 C 92.270 99.890 92.000 97.375 92.000 86.393 L 92.000 73.000 95.941 73.000 C 98.109 73.000 100.160 73.450 100.500 74.000 C 101.947 76.342 103.000 74.657 103.000 70.000 L 103.000 65.000 91.513 65.000 L 80.027 65.000 78.513 68.622 "/></g>
<g fill="#F9F4EAFF" stroke="#F9F4EAFF">
<path d="M 83.452 30.367 C 76.826 33.338 74.928 41.803 79.500 48.000 C 80.875 49.864 82.000 52.201 82.000 53.194 C 82.000 54.735 82.882 55.000 88.000 55.000 C 93.642 55.000 94.000 54.859 94.000 52.635 C 94.000 51.334 94.945 49.068 96.100 47.600 C 97.255 46.132 98.432 43.197 98.716 41.078 C 99.166 37.727 98.795 36.754 95.867 33.610 C 91.999 29.457 87.881 28.381 83.452 30.367 M 94.250 35.080 C 96.523 37.861 96.485 43.098 94.170 46.115 C 93.164 47.427 92.028 49.352 91.647 50.393 C 90.428 53.719 90.078 51.599 91.097 47.064 C 91.753 44.144 91.745 42.345 91.074 41.674 C 90.396 40.996 89.850 41.227 89.409 42.376 C 88.790 43.988 88.644 43.988 86.853 42.367 C 84.341 40.093 82.290 41.806 83.907 44.827 C 84.508 45.950 84.961 48.361 84.914 50.184 L 84.828 53.500 83.972 50.643 C 83.501 49.071 82.325 46.911 81.358 45.843 C 76.455 40.426 81.636 31.201 88.925 32.367 C 90.891 32.682 93.288 33.903 94.250 35.080 "/></g>
<g fill="#F9F4EAFF" stroke="#F9F4EAFF">
<path d="M 82.000 56.950 C 82.000 57.473 82.563 58.260 83.250 58.700 C 83.938 59.140 84.500 60.175 84.500 61.000 C 84.500 62.048 85.556 62.500 88.000 62.500 C 90.606 62.500 91.503 62.071 91.513 60.821 C 91.520 59.897 91.857 58.809 92.263 58.404 C 93.995 56.672 92.663 56.000 87.500 56.000 C 84.475 56.000 82.000 56.428 82.000 56.950 "/></g>
<g fill="#F9F4EAFF" stroke="#F9F4EAFF">
<path d="M 76.513 25.979 C 75.674 27.336 77.734 30.000 79.622 30.000 C 81.550 30.000 81.338 28.616 79.099 26.590 C 77.798 25.412 76.983 25.219 76.513 25.979 "/></g>
<g fill="#F9F4EAFF" stroke="#F9F4EAFF">
<path d="M 86.507 22.977 C 85.822 25.136 86.541 27.000 88.059 27.000 C 89.277 27.000 89.288 22.296 88.072 21.544 C 87.562 21.229 86.858 21.873 86.507 22.977 "/></g>
<g fill="#F9F4EAFF" stroke="#F9F4EAFF">
<path d="M 96.516 26.983 C 94.126 29.624 95.376 30.874 98.017 28.484 C 99.134 27.474 99.666 26.266 99.200 25.800 C 98.734 25.334 97.526 25.866 96.516 26.983 "/></g>
</svg>
